<svg width="200" height="200" viewBox="0 0 200 200" xmlns="http://www.w3.org/2000/svg">
    <!-- Background -->
    <circle cx="100" cy="100" r="95" fill="#FFF5F0" stroke="#E57F39" stroke-width="1" opacity="0.3"/>
    
    <!-- Main Gear -->
    <g transform="translate(100,100)">
        <circle r="40" fill="none" stroke="#E57F39" stroke-width="4"/>
        <circle r="25" fill="#E57F39"/>
        
        <!-- Gear teeth -->
        <g stroke="#E57F39" stroke-width="3" fill="#E57F39">
            <rect x="-3" y="-43" width="6" height="8" rx="1"/>
            <rect x="-3" y="35" width="6" height="8" rx="1"/>
            <rect x="35" y="-3" width="8" height="6" rx="1"/>
            <rect x="-43" y="-3" width="8" height="6" rx="1"/>
            
            <rect x="28" y="-28" width="6" height="8" rx="1" transform="rotate(45)"/>
            <rect x="28" y="20" width="6" height="8" rx="1" transform="rotate(45)"/>
            <rect x="-34" y="20" width="6" height="8" rx="1" transform="rotate(45)"/>
            <rect x="-34" y="-28" width="6" height="8" rx="1" transform="rotate(45)"/>
        </g>
        
        <!-- Center bolt -->
        <circle r="8" fill="#D16A26"/>
        <circle r="3" fill="#FFF5F0"/>
    </g>
    
    <!-- Small gears -->
    <g transform="translate(60,60)">
        <circle r="15" fill="none" stroke="#D16A26" stroke-width="2"/>
        <circle r="10" fill="#D16A26"/>
        <rect x="-1.5" y="-17" width="3" height="4" rx="0.5" fill="#D16A26"/>
        <rect x="-1.5" y="13" width="3" height="4" rx="0.5" fill="#D16A26"/>
        <rect x="13" y="-1.5" width="4" height="3" rx="0.5" fill="#D16A26"/>
        <rect x="-17" y="-1.5" width="4" height="3" rx="0.5" fill="#D16A26"/>
    </g>
    
    <g transform="translate(140,140)">
        <circle r="12" fill="none" stroke="#D16A26" stroke-width="2"/>
        <circle r="8" fill="#D16A26"/>
        <rect x="-1" y="-14" width="2" height="3" rx="0.5" fill="#D16A26"/>
        <rect x="-1" y="11" width="2" height="3" rx="0.5" fill="#D16A26"/>
        <rect x="11" y="-1" width="3" height="2" rx="0.5" fill="#D16A26"/>
        <rect x="-14" y="-1" width="3" height="2" rx="0.5" fill="#D16A26"/>
    </g>
    
    <!-- Floating elements -->
    <circle cx="30" cy="170" r="2" fill="#E57F39" opacity="0.6"/>
    <circle cx="170" cy="30" r="2" fill="#D16A26" opacity="0.8"/>
    <rect x="25" y="25" width="4" height="4" rx="1" fill="#E57F39" opacity="0.5"/>
    <rect x="170" y="170" width="3" height="3" rx="1" fill="#D16A26" opacity="0.7"/>
</svg>
