<svg width="200" height="200" viewBox="0 0 200 200" xmlns="http://www.w3.org/2000/svg">
    <!-- Background Circle -->
    <circle cx="100" cy="100" r="90" fill="#FEF7F0" stroke="#E57F39" stroke-width="2"/>
    
    <!-- Tools -->
    <g transform="translate(100,100)">
        <!-- Wrench -->
        <path d="M-30,-20 L-25,-15 L-15,-25 L-20,-30 L-35,-15 L-30,-10 L-25,-15 Z" fill="#E57F39"/>
        <rect x="-32" y="-12" width="4" height="25" rx="2" fill="#E57F39" transform="rotate(45)"/>
        
        <!-- Screwdriver -->
        <rect x="15" y="-2" width="30" height="4" rx="2" fill="#D16A26"/>
        <rect x="42" y="-3" width="8" height="6" rx="1" fill="#8B4513"/>
        
        <!-- Gear -->
        <circle cx="0" cy="20" r="15" fill="none" stroke="#E57F39" stroke-width="3"/>
        <circle cx="0" cy="20" r="8" fill="#E57F39"/>
        <g stroke="#E57F39" stroke-width="2">
            <line x1="0" y1="5" x2="0" y2="0"/>
            <line x1="15" y1="20" x2="20" y2="20"/>
            <line x1="0" y1="35" x2="0" y2="40"/>
            <line x1="-15" y1="20" x2="-20" y2="20"/>
            <line x1="10.6" y1="9.4" x2="14.1" y2="5.9"/>
            <line x1="10.6" y1="30.6" x2="14.1" y2="34.1"/>
            <line x1="-10.6" y1="30.6" x2="-14.1" y2="34.1"/>
            <line x1="-10.6" y1="9.4" x2="-14.1" y2="5.9"/>
        </g>
    </g>
    
    <!-- Decorative dots -->
    <circle cx="40" cy="60" r="3" fill="#E57F39" opacity="0.5"/>
    <circle cx="160" cy="70" r="2" fill="#D16A26" opacity="0.7"/>
    <circle cx="50" cy="140" r="2" fill="#E57F39" opacity="0.6"/>
    <circle cx="150" cy="130" r="3" fill="#D16A26" opacity="0.5"/>
</svg>
